<?xml version="1.0" standalone="no"?>
<!DOCTYPE svg PUBLIC "-//W3C//DTD SVG 20010904//EN"
 "http://www.w3.org/TR/2001/REC-SVG-20010904/DTD/svg10.dtd">
<svg version="1.0" xmlns="http://www.w3.org/2000/svg"
 width="713.000000pt" height="713.000000pt" viewBox="0 0 713.000000 713.000000"
 preserveAspectRatio="xMidYMid meet">
<metadata>
Created by potrace 1.14, written by Peter Selinger 2001-2017
</metadata>
<g transform="translate(0.000000,713.000000) scale(0.100000,-0.100000)"
fill="#000000" stroke="none">
<path d="M3330 7124 c-405 -35 -721 -106 -1055 -236 -1131 -440 -1967 -1433
-2204 -2617 -53 -262 -66 -398 -66 -701 0 -286 7 -378 50 -625 246 -1432 1373
-2587 2804 -2874 262 -53 398 -66 701 -66 279 0 373 7 605 46 1285 215 2367
1143 2780 2384 131 393 180 702 180 1130 0 280 -8 376 -50 620 -219 1276
-1144 2349 -2380 2760 -242 81 -436 125 -710 161 -105 14 -558 26 -655 18z
m524 -1087 c62 -35 77 -71 86 -202 31 -450 307 -823 724 -980 102 -38 187 -56
319 -65 135 -10 175 -27 207 -91 38 -73 13 -167 -55 -209 -35 -22 -43 -22
-173 -17 -348 14 -689 170 -940 431 l-82 86 0 -1258 c0 -806 -4 -1288 -10
-1342 -61 -500 -453 -870 -951 -897 -483 -27 -911 294 -1031 774 -32 125 -32
341 0 466 48 192 140 354 279 488 136 133 283 214 470 261 123 31 352 31 465
0 156 -43 278 -102 396 -194 l62 -48 0 1350 c0 1458 -3 1376 52 1427 50 47
121 55 182 20z"/>
</g>
</svg>
